<svg xmlns="http://www.w3.org/2000/svg" width="18.708" height="21.381" viewBox="0 0 18.708 21.381">
  <path id="Icon_awesome-calendar-alt" data-name="Icon awesome-calendar-alt" d="M0,19.376a2,2,0,0,0,2,2H16.7a2,2,0,0,0,2-2V8.018H0Zm13.363-8.185a.5.5,0,0,1,.5-.5h1.67a.5.5,0,0,1,.5.5v1.67a.5.5,0,0,1-.5.5h-1.67a.5.5,0,0,1-.5-.5Zm0,5.345a.5.5,0,0,1,.5-.5h1.67a.5.5,0,0,1,.5.5v1.67a.5.5,0,0,1-.5.5h-1.67a.5.5,0,0,1-.5-.5ZM8.018,11.192a.5.5,0,0,1,.5-.5h1.67a.5.5,0,0,1,.5.5v1.67a.5.5,0,0,1-.5.5H8.519a.5.5,0,0,1-.5-.5Zm0,5.345a.5.5,0,0,1,.5-.5h1.67a.5.5,0,0,1,.5.5v1.67a.5.5,0,0,1-.5.5H8.519a.5.5,0,0,1-.5-.5ZM2.673,11.192a.5.5,0,0,1,.5-.5h1.67a.5.5,0,0,1,.5.5v1.67a.5.5,0,0,1-.5.5H3.174a.5.5,0,0,1-.5-.5Zm0,5.345a.5.5,0,0,1,.5-.5h1.67a.5.5,0,0,1,.5.5v1.67a.5.5,0,0,1-.5.5H3.174a.5.5,0,0,1-.5-.5ZM16.7,2.673h-2v-2A.67.67,0,0,0,14.031,0H12.695a.67.67,0,0,0-.668.668v2H6.682v-2A.67.67,0,0,0,6.013,0H4.677a.67.67,0,0,0-.668.668v2H2a2,2,0,0,0-2,2v2H18.708v-2A2,2,0,0,0,16.7,2.673Z" fill="#6d6d6d"/>
</svg>
