<svg id="Icon_ionic-ios-checkbox-outline" data-name="Icon ionic-ios-checkbox-outline" xmlns="http://www.w3.org/2000/svg" width="22.149" height="22.149" viewBox="0 0 22.149 22.149">
  <path id="Path_53" data-name="Path 53" d="M24.054,3.75H5.6A1.844,1.844,0,0,0,3.75,5.6V24.054A1.844,1.844,0,0,0,5.6,25.9H24.054A1.844,1.844,0,0,0,25.9,24.054V5.6A1.844,1.844,0,0,0,24.054,3.75Zm.231,20.073a.463.463,0,0,1-.461.461h-18a.463.463,0,0,1-.461-.461v-18a.463.463,0,0,1,.461-.461h18a.463.463,0,0,1,.461.461Z" transform="translate(-3.75 -3.75)" fill="#8e8d8d"/>
  <path id="Path_54" data-name="Path 54" d="M21.109,11.285l-1.015-1.044a.218.218,0,0,0-.162-.069h0a.209.209,0,0,0-.162.069L12.734,17.33l-2.561-2.561a.223.223,0,0,0-.323,0L8.823,15.8a.23.23,0,0,0,0,.329l3.23,3.23a1.022,1.022,0,0,0,.675.329,1.07,1.07,0,0,0,.669-.317H13.4l7.712-7.752A.247.247,0,0,0,21.109,11.285Z" transform="translate(-3.828 -3.85)" fill="#8e8d8d"/>
</svg>
