<svg xmlns="http://www.w3.org/2000/svg" width="21" height="21" viewBox="0 0 21 21">
  <path id="Icon_awesome-certificate" data-name="Icon awesome-certificate" d="M18.811,10.5,20.7,8.651A.977.977,0,0,0,20.259,7L17.69,6.34,18.414,3.8A.994.994,0,0,0,17.2,2.58L14.655,3.3,14,.734A.984.984,0,0,0,12.345.3L10.5,2.2,8.655.3A.984.984,0,0,0,7,.734L6.345,3.3,3.8,2.58A.994.994,0,0,0,2.586,3.8L3.31,6.34.741,7A.977.977,0,0,0,.3,8.651L2.189,10.5.3,12.343A.977.977,0,0,0,.741,14l2.57.656L2.586,17.2A.994.994,0,0,0,3.8,18.413l2.543-.725L7,20.259a.975.975,0,0,0,1.654.438L10.5,18.81,12.345,20.7A.979.979,0,0,0,14,20.259l.656-2.57,2.543.725A.994.994,0,0,0,18.414,17.2l-.724-2.544L20.259,14a.977.977,0,0,0,.437-1.655L18.811,10.5Z" transform="translate(0 0)" fill="#fff"/>
</svg>
