<svg xmlns="http://www.w3.org/2000/svg" width="16.615" height="18.462" viewBox="0 0 16.615 18.462">
  <path id="Icon_material-assignment" data-name="Icon material-assignment" d="M19.269,3.346H15.411a2.758,2.758,0,0,0-5.206,0H6.346A1.852,1.852,0,0,0,4.5,5.192V18.115a1.852,1.852,0,0,0,1.846,1.846H19.269a1.852,1.852,0,0,0,1.846-1.846V5.192A1.852,1.852,0,0,0,19.269,3.346Zm-6.462,0a.923.923,0,1,1-.923.923A.926.926,0,0,1,12.808,3.346Zm1.846,12.923H8.192V14.423h6.462Zm2.769-3.692H8.192V10.731h9.231Zm0-3.692H8.192V7.038h9.231Z" transform="translate(-4.5 -1.5)" fill="#fff"/>
</svg>
