<svg xmlns="http://www.w3.org/2000/svg" width="23.077" height="18.462" viewBox="0 0 23.077 18.462">
  <path id="Icon_awesome-user-check" data-name="Icon awesome-user-check" d="M8.077,9.231A4.615,4.615,0,1,0,3.462,4.615,4.615,4.615,0,0,0,8.077,9.231Zm3.231,1.154h-.6a6.277,6.277,0,0,1-5.257,0h-.6A4.847,4.847,0,0,0,0,15.231v1.5a1.731,1.731,0,0,0,1.731,1.731H14.423a1.731,1.731,0,0,0,1.731-1.731v-1.5A4.847,4.847,0,0,0,11.308,10.385Zm11.647-4.63-1-1.013a.428.428,0,0,0-.606,0l-3.779,3.75L15.927,6.837a.428.428,0,0,0-.606,0L14.308,7.839a.428.428,0,0,0,0,.606l2.946,2.968a.428.428,0,0,0,.606,0l5.095-5.055a.431.431,0,0,0,0-.606Z" fill="#fff"/>
</svg>
