<svg width="20" height="17" viewBox="0 0 20 17" fill="none" xmlns="http://www.w3.org/2000/svg">
<path fill-rule="evenodd" clip-rule="evenodd" d="M7.5 12.0561V14.7449H18.3333C19.25 14.7449 20 13.9643 20 13.0102V1.73469C20 0.780612 19.25 0 18.3333 0H1.66667C0.75 0 0 0.780612 0 1.73469V13.0102C0 13.9643 0.75 14.7449 1.66667 14.7449H3.33333V12.0561C2.83333 11.5357 2.5 10.7551 2.5 9.97449C2.5 8.32653 3.83333 6.93878 5.41667 6.93878C7 6.93878 8.33333 8.32653 8.33333 9.97449C8.33333 10.8418 8 11.5357 7.5 12.0561ZM4.16667 12.75V17L5.41667 15.699L6.66667 17V12.75C6.25 12.9235 5.83333 13.0102 5.41667 13.0102C5 13.0102 4.58333 12.9235 4.16667 12.75ZM2.5 4.33673V5.20408H17.5V4.33673H2.5ZM10 6.93878V7.80612H17.5V6.93878H10ZM12.5 9.54082V10.4082H17.5V9.54082H12.5ZM5.41667 12.1429C6.58333 12.1429 7.5 11.1888 7.5 9.97449C7.5 8.7602 6.58333 7.80612 5.41667 7.80612C4.25 7.80612 3.33333 8.7602 3.33333 9.97449C3.33333 11.1888 4.25 12.1429 5.41667 12.1429Z" fill="white"/>
</svg>
