<svg xmlns="http://www.w3.org/2000/svg" width="14.031" height="18.462" viewBox="0 0 14.031 18.462">
  <g id="Icon_ionic-ios-document" data-name="Icon ionic-ios-document" transform="translate(-7.313 -3.938)">
    <path id="Path_51" data-name="Path 51" d="M21.478,8.509h4.2a.229.229,0,0,0,.231-.231h0a1.366,1.366,0,0,0-.494-1.057L21.894,4.286a1.482,1.482,0,0,0-.951-.342h0a.341.341,0,0,0-.342.342V7.632A.877.877,0,0,0,21.478,8.509Z" transform="translate(-4.566 -0.002)" fill="#fff"/>
    <path id="Path_52" data-name="Path 52" d="M14.836,7.63V3.937H8.789A1.481,1.481,0,0,0,7.312,5.414V20.922A1.481,1.481,0,0,0,8.789,22.4H19.866a1.481,1.481,0,0,0,1.477-1.477V9.707H16.913A2.08,2.08,0,0,1,14.836,7.63Z" transform="translate(0 0)" fill="#fff"/>
  </g>
</svg>
