<svg xmlns="http://www.w3.org/2000/svg" width="17.029" height="19.462" viewBox="0 0 17.029 19.462">
  <path id="Icon_awesome-bell" data-name="Icon awesome-bell" d="M8.514,19.462a2.432,2.432,0,0,0,2.432-2.433H6.083A2.432,2.432,0,0,0,8.514,19.462ZM16.7,13.771c-.734-.789-2.108-1.976-2.108-5.865a6,6,0,0,0-4.863-5.9V1.216a1.216,1.216,0,1,0-2.431,0v.792a6,6,0,0,0-4.863,5.9c0,3.889-1.374,5.076-2.108,5.865A1.188,1.188,0,0,0,0,14.6a1.217,1.217,0,0,0,1.22,1.216H15.809a1.217,1.217,0,0,0,1.22-1.216,1.187,1.187,0,0,0-.327-.825Z" transform="translate(0)" fill="#fff"/>
</svg>
