<svg xmlns="http://www.w3.org/2000/svg" width="19.47" height="14.838" viewBox="0 0 19.47 14.838">
  <path id="Icon_awesome-sign-out-alt" data-name="Icon awesome-sign-out-alt" d="M19.2,11.824l-6.49,6.49a.929.929,0,0,1-1.584-.657V13.949H5.872a.925.925,0,0,1-.927-.927V9.313a.925.925,0,0,1,.927-.927h5.254V4.677A.929.929,0,0,1,12.71,4.02l6.49,6.49A.935.935,0,0,1,19.2,11.824Zm-11.783,6.3V16.576a.465.465,0,0,0-.464-.464H3.709a1.235,1.235,0,0,1-1.236-1.236V7.458A1.235,1.235,0,0,1,3.709,6.222H6.954a.465.465,0,0,0,.464-.464V4.213a.465.465,0,0,0-.464-.464H3.709A3.71,3.71,0,0,0,0,7.458v7.418a3.71,3.71,0,0,0,3.709,3.709H6.954A.465.465,0,0,0,7.418,18.121Z" transform="translate(0 -3.749)" fill="#fff"/>
</svg>
