<svg xmlns="http://www.w3.org/2000/svg" width="20.888" height="18.567" viewBox="0 0 20.888 18.567">
  <path id="Icon_awesome-id-card-alt" data-name="Icon awesome-id-card-alt" d="M19.147,2.321H13.925V5.8H6.963V2.321H1.741A1.741,1.741,0,0,0,0,4.062V16.827a1.741,1.741,0,0,0,1.741,1.741H19.147a1.741,1.741,0,0,0,1.741-1.741V4.062A1.741,1.741,0,0,0,19.147,2.321Zm-8.7,5.8a2.321,2.321,0,1,1-2.321,2.321A2.323,2.323,0,0,1,10.444,8.123Zm3.383,8.123H7.061a.572.572,0,0,1-.566-.718,2.322,2.322,0,0,1,2.208-1.6H9a3.735,3.735,0,0,0,2.887,0h.3a2.324,2.324,0,0,1,2.208,1.6A.572.572,0,0,1,13.827,16.246ZM12.765,1.16A1.159,1.159,0,0,0,11.6,0H9.284a1.159,1.159,0,0,0-1.16,1.16V4.642h4.642Z" fill="#fff"/>
</svg>
