<svg xmlns="http://www.w3.org/2000/svg" width="20.455" height="15.91" viewBox="0 0 20.455 15.91">
  <path id="Icon_awesome-id-card" data-name="Icon awesome-id-card" d="M18.751,1.875H1.7A1.705,1.705,0,0,0,0,3.58v.568H20.455V3.58A1.705,1.705,0,0,0,18.751,1.875ZM0,16.08a1.705,1.705,0,0,0,1.7,1.7H18.751a1.705,1.705,0,0,0,1.7-1.7V5.284H0ZM12.5,7.841a.285.285,0,0,1,.284-.284H17.9a.285.285,0,0,1,.284.284v.568a.285.285,0,0,1-.284.284H12.784a.285.285,0,0,1-.284-.284Zm0,2.273a.285.285,0,0,1,.284-.284H17.9a.285.285,0,0,1,.284.284v.568a.285.285,0,0,1-.284.284H12.784a.285.285,0,0,1-.284-.284Zm0,2.273a.285.285,0,0,1,.284-.284H17.9a.285.285,0,0,1,.284.284v.568a.285.285,0,0,1-.284.284H12.784a.285.285,0,0,1-.284-.284ZM6.25,7.557A2.273,2.273,0,1,1,3.977,9.83,2.275,2.275,0,0,1,6.25,7.557ZM2.383,14.809a2.276,2.276,0,0,1,2.163-1.57h.291a3.658,3.658,0,0,0,2.827,0h.291a2.276,2.276,0,0,1,2.163,1.57.559.559,0,0,1-.554.7H2.937A.561.561,0,0,1,2.383,14.809Z" transform="translate(0 -1.875)" fill="#fff"/>
</svg>
