<svg xmlns="http://www.w3.org/2000/svg" width="20.527" height="16.038" viewBox="0 0 20.527 16.038">
  <path id="Icon_awesome-exchange-alt" data-name="Icon awesome-exchange-alt" d="M0,8.427V7.786a.962.962,0,0,1,.962-.962H15.4V4.9a.963.963,0,0,1,1.643-.68l3.207,3.207a.962.962,0,0,1,0,1.361l-3.207,3.207a.963.963,0,0,1-1.643-.68V9.389H.962A.962.962,0,0,1,0,8.427Zm19.565,6.094H5.132V12.6a.963.963,0,0,0-1.643-.68L.282,15.124a.962.962,0,0,0,0,1.361l3.207,3.207a.963.963,0,0,0,1.643-.68V17.087H19.565a.962.962,0,0,0,.962-.962v-.641A.962.962,0,0,0,19.565,14.521Z" transform="translate(0 -3.936)" fill="#fff"/>
</svg>
