<svg xmlns="http://www.w3.org/2000/svg" width="16.154" height="18.462" viewBox="0 0 16.154 18.462">
  <path id="Icon_awesome-calendar" data-name="Icon awesome-calendar" d="M.433,6.923H15.721a.434.434,0,0,1,.433.433v9.375a1.731,1.731,0,0,1-1.731,1.731H1.731A1.731,1.731,0,0,1,0,16.731V7.356A.434.434,0,0,1,.433,6.923ZM16.154,5.337v-1.3a1.731,1.731,0,0,0-1.731-1.731H12.692V.433A.434.434,0,0,0,12.26,0H10.817a.434.434,0,0,0-.433.433V2.308H5.769V.433A.434.434,0,0,0,5.337,0H3.894a.434.434,0,0,0-.433.433V2.308H1.731A1.731,1.731,0,0,0,0,4.038v1.3a.434.434,0,0,0,.433.433H15.721A.434.434,0,0,0,16.154,5.337Z" fill="#fff"/>
</svg>
